HIERARCHY
ROOT Hips
{
  OFFSET 49.6339 94.3082 0.382554
  CHANNELS 6 Xposition Yposition Zposition Zrotation Xrotation Yrotation
  JOINT spine
  {
    OFFSET 0 7.80059 0.448573
    CHANNELS 3 Zrotation Xrotation Yrotation
    JOINT spine1
    {
      OFFSET 0 10.1364 0
      CHANNELS 3 Zrotation Xrotation Yrotation
      JOINT spine2
      {
        OFFSET 0 9.71251 0
        CHANNELS 3 Zrotation Xrotation Yrotation
        JOINT Neck
        {
          OFFSET 0 24.9361 1.18887
          CHANNELS 3 Zrotation Xrotation Yrotation
          JOINT Head
          {
            OFFSET 0 7.53384 0
            CHANNELS 3 Zrotation Xrotation Yrotation
            End Site
            {
              OFFSET 0 18.2361 -6.01402
            }
          }
        }
        JOINT RightShoulder
        {
          OFFSET -4.08965 10.4888 -0.569457
          CHANNELS 3 Zrotation Xrotation Yrotation
          JOINT RightArm
          {
            OFFSET 0 13.757 0
            CHANNELS 3 Zrotation Xrotation Yrotation
            JOINT RightArmRoll
            {
              OFFSET 0 6.94478 0
              CHANNELS 3 Zrotation Xrotation Yrotation
              JOINT RightForeArm
              {
                OFFSET 0 20.2277 0
                CHANNELS 3 Zrotation Xrotation Yrotation
                JOINT RightForeArmRoll
                {
                  OFFSET 0 7.79312 0
                  CHANNELS 3 Zrotation Xrotation Yrotation
                  JOINT RightHand
                  {
                    OFFSET 0 15.6391 0
                    CHANNELS 3 Zrotation Xrotation Yrotation
                    End Site
                    {
                      OFFSET 0 0 0
                    }
                  }
                }
              }
            }
          }
        }
        JOINT LeftShoulder
        {
          OFFSET 4.08965 10.4888 -0.569457
          CHANNELS 3 Zrotation Xrotation Yrotation
          JOINT LeftArm
          {
            OFFSET 0 13.757 0
            CHANNELS 3 Zrotation Xrotation Yrotation
            JOINT LeftArmRoll
            {
              OFFSET 0 6.94478 0
              CHANNELS 3 Zrotation Xrotation Yrotation
              JOINT LeftForeArm
              {
                OFFSET 0 20.2277 0
                CHANNELS 3 Zrotation Xrotation Yrotation
                JOINT LeftForeArmRoll
                {
                  OFFSET 0 7.79312 0
                  CHANNELS 3 Zrotation Xrotation Yrotation
                  JOINT LeftHand
                  {
                    OFFSET 0 15.6391 0
                    CHANNELS 3 Zrotation Xrotation Yrotation
                    End Site
                    {
                      OFFSET 0 0 0
                    }
                  }
                }
              }
            }
          }
        }
      }
    }
  }
  JOINT RightUpLeg
  {
    OFFSET -6.91416 -1.26788 -1.06358
    CHANNELS 3 Zrotation Xrotation Yrotation
    JOINT RightUpLegRoll
    {
      OFFSET 0 18.3378 0
      CHANNELS 3 Zrotation Xrotation Yrotation
      JOINT RightLeg
      {
        OFFSET 0 -22.7085 0
        CHANNELS 3 Zrotation Xrotation Yrotation
        JOINT RightLegRoll
        {
          OFFSET 0 22.7828 0
          CHANNELS 3 Zrotation Xrotation Yrotation
          JOINT RightFoot
          {
            OFFSET 0 18.9629 0
            CHANNELS 3 Zrotation Xrotation Yrotation
            JOINT RightToeBase
            {
              OFFSET 0 15.852 0
              CHANNELS 3 Zrotation Xrotation Yrotation
              End Site
              {
                OFFSET 0.00671906 7.677 -0.884893
              }
            }
          }
        }
      }
    }
  }
  JOINT LeftUpLeg
  {
    OFFSET 6.91416 -1.26788 -1.06358
    CHANNELS 3 Zrotation Xrotation Yrotation
    JOINT LeftUpLegRoll
    {
      OFFSET 0 18.3379 0
      CHANNELS 3 Zrotation Xrotation Yrotation
      JOINT LeftLeg
      {
        OFFSET 0 22.7084 0
        CHANNELS 3 Zrotation Xrotation Yrotation
        JOINT LeftLegRoll
        {
          OFFSET 0 22.9934 0
          CHANNELS 3 Zrotation Xrotation Yrotation
          JOINT LeftFoot
          {
            OFFSET 0 18.7522 0
            CHANNELS 3 Zrotation Xrotation Yrotation
            JOINT LeftToeBase
            {
              OFFSET 0 15.852 0
              CHANNELS 3 Zrotation Xrotation Yrotation
              End Site
              {
                OFFSET -0.030112 7.67701 -0.884893
              }
            }
          }
        }
      }
    }
  }
}
MOTION
Frames: 4
Frame Time: 0.00208333
52.0309 94.1432 8.44167 -2.07997 -5.21004 0.819482 0.167805 -0.629373 0.431085 0.323575 2.74529 0.832138 0.313868 4.39027 0.827368 0.139439 19.726 -2.24854 1.37274 -14.986 -1.86341 85.3876 -3.97733 -4.28328 86.3908 13.8404 -5.15279 -2.27014e-005 1.62481e-006 -1.99759e-006 20.3637 30.7906 -5.77909 -3.02645e-006 8.622e-006 -3 8.02913 -4.95138 0.697684 -62.7104 0.00279238 0.489143 -106.972 4.32337 0.738408 7.10416e-006 4.37697e-007 7.19793e-008 -12.7704 31.0117 5.5722 1.01358e-005 -3.36223e-006 2.99998 -8.0289 -4.95151 -0.697699 -176.199 0.760008 -2.65341 180 7.01518e-015 178.806 177.908 10.5959 179.789 2.0703e-006 2.19705e-006 0.320493 -23.3681 70.3952 21.9725 8.13131 25.2352 -3.47758 -179.226 0.533489 6.41553 4.57705e-006 1.05463e-005 -1.41316 -4.23853 -14.57 -0.26332 -2.56574e-006 -4.47282e-006 -0.38534 26.6269 72.4512 -24.6695 -8.12442 25.2432 3.48258 
52.0252 94.1375 8.44579 -2.08246 -5.20927 0.811878 0.167838 -0.628217 0.431082 0.325333 2.7476 0.831872 0.315632 4.39259 0.827066 0.113273 19.7088 -2.2396 1.41062 -14.9756 -1.85438 85.4009 -3.97623 -4.28373 86.3669 13.7959 -5.05615 -2.27014e-005 1.62481e-006 -1.99759e-006 20.3314 30.7706 -5.77369 -3.02645e-006 8.622e-006 -3 8.02913 -4.95138 0.697684 -62.6946 0.00358545 0.486783 -107.009 4.28271 0.689089 7.10416e-006 4.37697e-007 7.19793e-008 -12.7411 30.9943 5.56016 1.01358e-005 -3.36223e-006 2.99998 -8.0289 -4.95151 -0.697699 -176.193 0.754178 -2.65969 180 7.01518e-015 178.806 177.915 10.5941 179.788 2.0703e-006 2.19705e-006 0.320752 -23.3591 70.3908 21.9656 8.13131 25.2352 -3.47758 -179.223 0.527549 6.41242 4.57705e-006 1.05463e-005 -1.41316 -4.24075 -14.5732 -0.264177 -2.56574e-006 -4.47282e-006 -0.385362 26.6339 72.4556 -24.675 -8.12442 25.2432 3.48258 
52.0269 94.1377 8.46921 -2.08492 -5.20871 0.803954 0.167865 -0.627072 0.431079 0.327148 2.7499 0.831568 0.317454 4.39489 0.826724 0.0852276 19.6924 -2.22999 1.4506 -14.9655 -1.84479 85.4142 -3.97513 -4.28417 86.3436 13.752 -4.9588 -2.27014e-005 1.62481e-006 -1.99759e-006 20.2988 30.7498 -5.7681 -3.02645e-006 8.622e-006 -3 8.02913 -4.95138 0.697684 -62.6791 0.00464038 0.484318 -107.046 4.24251 0.638102 7.10416e-006 4.37697e-007 7.19793e-008 -12.711 30.9741 5.54742 1.01358e-005 -3.36223e-006 2.99998 -8.0289 -4.95151 -0.697699 -176.187 0.748324 -2.66593 180 7.01518e-015 178.806 177.922 10.5925 179.786 2.0703e-006 2.19705e-006 0.321043 -23.3504 70.3866 21.9589 8.13131 25.2352 -3.47758 -179.221 0.521338 6.40936 4.57705e-006 1.05463e-005 -1.41316 -4.24297 -14.5765 -0.265073 -2.56574e-006 -4.47282e-006 -0.385396 26.641 72.4601 -24.6805 -8.12442 25.2432 3.48258 
52.0294 94.139 8.47472 -2.08737 -5.20828 0.795807 0.167887 -0.625935 0.431076 0.329004 2.75218 0.831238 0.319317 4.39717 0.826355 0.0558627 19.6766 -2.2199 1.49205 -14.9556 -1.83481 85.4274 -3.97404 -4.28462 86.3207 13.7085 -4.86095 -2.27014e-005 1.62481e-006 -1.99759e-006 20.266 30.7285 -5.76238 -3.02645e-006 8.622e-006 -3 8.02913 -4.95138 0.697684 -62.664 0.00587954 0.481779 -107.083 4.20264 0.585942 7.10416e-006 4.37697e-007 7.19793e-008 -12.6803 30.952 5.53417 1.01358e-005 -3.36223e-006 2.99998 -8.0289 -4.95151 -0.697699 -176.181 0.742452 -2.67214 180 7.01518e-015 178.805 177.929 10.5913 179.785 2.0703e-006 2.19705e-006 0.321357 -23.342 70.3825 21.9522 8.13131 25.2352 -3.47758 -179.218 0.514937 6.40632 4.57705e-006 1.05463e-005 -1.41316 -4.24519 -14.5798 -0.265997 -2.56574e-006 -4.47282e-006 -0.385437 26.6482 72.4648 -24.686 -8.12442 25.2432 3.48258 
